<svg height="496pt" viewBox="0 -4 496 496" width="496pt" xmlns="http://www.w3.org/2000/svg"><path d="m472 360h-20.449219c2.753907-4.726562 4.449219-10.144531 4.449219-16 0-10.808594-5.425781-20.34375-13.65625-26.144531 8.304688-7.335938 13.65625-17.933594 13.65625-29.855469 0-8.984375-3.089844-17.199219-8.113281-23.886719 5.210937-6.898437 8.113281-15.335937 8.113281-24.113281 0-21.59375-17.230469-39.128906-38.648438-39.863281 4.207032-7.199219 6.648438-15.464844 6.648438-24.136719 0-26.472656-21.527344-48-48-48h-21.703125l6.09375-128h-48.78125l6.09375 128h-21.703125c-26.472656 0-48 21.527344-48 48 0 8.679688 2.441406 16.9375 6.640625 24.136719-2.375.078125-4.71875.277343-6.976563.757812-2.089843-.40625-4.183593-.71875-6.304687-.78125 4.207031-7.191406 6.640625-15.449219 6.640625-24.113281 0-26.472656-21.527344-48-48-48h-21.703125l6.09375-128h-48.78125l6.09375 128h-21.703125c-26.472656 0-48 21.527344-48 48 0 8.679688 2.441406 16.9375 6.640625 24.136719-21.417969.734375-38.640625 18.269531-38.640625 39.863281 0 8.777344 2.902344 17.214844 8.113281 24.113281-5.023437 6.6875-8.113281 14.902344-8.113281 23.886719 0 11.921875 5.351562 22.519531 13.65625 29.855469-8.230469 5.800781-13.65625 15.335937-13.65625 26.144531 0 5.855469 1.695312 11.273438 4.449219 16h-20.449219c-13.230469 0-24 10.769531-24 24s10.769531 24 24 24h15.382812l19.203126 48h15.167968l8 32h332.492188l8-32h15.167968l19.203126-48h15.382812c13.230469 0 24-10.769531 24-24s-10.769531-24-24-24zm-48-32c8.824219 0 16 7.175781 16 16s-7.175781 16-16 16h-176c-8.824219 0-16-7.175781-16-16s7.175781-16 16-16zm-320-32v16h-24c-13.230469 0-24-10.769531-24-24s10.769531-24 24-24h120v16h16v-16h8.023438c.03125.039062.066406.070312.089843.113281-5.023437 6.6875-8.113281 14.902344-8.113281 23.886719 0 9.039062 3.128906 17.296875 8.207031 24h-104.207031v-16zm288-16v-16h24c13.230469 0 24 10.769531 24 24s-10.769531 24-24 24h-120v-16h-16v16h-24c-13.230469 0-24-10.769531-24-24s10.769531-24 24-24h120v16zm48-40c0 4.847656-1.542969 9.503906-4.214844 13.449219-5.863281-3.371094-12.554687-5.449219-19.785156-5.449219h-160c-7.230469 0-13.921875 2.078125-19.785156 5.449219-2.671875-3.945313-4.214844-8.601563-4.214844-13.449219 0-13.230469 10.769531-24 24-24 5.398438 0 10.574219 1.871094 14.976562 5.425781l5.023438 4.0625 5.023438-4.0625c8.792968-7.105469 21.160156-7.105469 29.945312 0l5.023438 4.0625 5.023437-4.0625c8.792969-7.105469 21.160156-7.105469 29.945313 0l5.023437 4.0625 5.023437-4.0625c8.792969-7.105469 21.160157-7.105469 29.945313 0l5.023437 4.0625 5.023438-4.0625c4.425781-3.554687 9.601562-5.425781 15-5.425781 13.230469 0 24 10.769531 24 24zm-96.390625-224-7.242187 151.96875c-.128907 0-.238282.03125-.367188.03125s-.238281-.03125-.375-.03125l-7.234375-151.96875zm-47.609375 128h22.464844l.992187 20.886719c-10.871093-4-17.730469-10.472657-17.832031-10.566407l-11.289062 11.335938c.761718.75 18.664062 18.34375 45.664062 18.34375s44.902344-17.59375 45.65625-18.34375l-11.3125-11.3125c-.097656.097656-6.871094 6.601562-17.808594 10.59375l1-20.9375h22.464844c17.648438 0 32 14.351562 32 32 0 11.425781-6.136719 21.855469-15.839844 27.558594-11.519531-5.152344-25.191406-4.542969-36.160156 1.921875-12.199219-7.199219-27.800781-7.199219-40 0-10.960938-6.472657-24.640625-7.082031-36.152344-1.929688-9.710937-5.6875-15.847656-16.117187-15.847656-27.550781 0-17.648438 14.351562-32 32-32zm-128.390625-128-7.242187 151.96875c-.128907 0-.238282.03125-.367188.03125s-.238281-.03125-.375-.03125l-7.234375-151.96875zm-47.609375 128h22.464844l.992187 20.886719c-10.871093-4-17.730469-10.472657-17.832031-10.566407l-11.289062 11.335938c.761718.75 18.664062 18.34375 45.664062 18.34375s44.902344-17.59375 45.65625-18.34375l-11.3125-11.3125c-.097656.097656-6.871094 6.601562-17.808594 10.59375l1-20.9375h22.464844c17.648438 0 32 14.351562 32 32 0 11.425781-6.136719 21.855469-15.839844 27.558594-11.519531-5.152344-25.191406-4.542969-36.160156 1.921875-12.199219-7.199219-27.800781-7.199219-40 0-10.960938-6.472657-24.640625-7.082031-36.152344-1.929688-9.710937-5.6875-15.847656-16.117187-15.847656-27.550781 0-17.648438 14.351562-32 32-32zm-40 72c5.398438 0 10.574219 1.871094 14.976562 5.425781l5.023438 4.0625 5.023438-4.0625c8.792968-7.105469 21.160156-7.105469 29.945312 0l5.023438 4.0625 5.023437-4.0625c8.792969-7.105469 21.160156-7.105469 29.945313 0l5.023437 4.0625 5.023437-4.0625c8.792969-7.105469 21.160157-7.105469 29.945313 0l4.085937 3.300781c-1.933593 4.714844-3.039062 9.867188-3.039062 15.273438 0 2.710938.296875 5.382812.832031 8h-136.832031c-7.230469 0-13.921875 2.078125-19.785156 5.449219-2.671875-3.945313-4.214844-8.601563-4.214844-13.449219 0-13.230469 10.769531-24 24-24zm-24 128c0-8.824219 7.175781-16 16-16h148.449219c-2.753907 4.726562-4.449219 10.144531-4.449219 16s1.695312 11.273438 4.449219 16h-148.449219c-8.824219 0-16-7.175781-16-16zm345.753906 128h-307.507812l-4-16h315.507812zm70.246094-80h-80v16h47.382812l-12.796874 32h-357.171876l-12.796874-32h319.382812v-16h-352c-4.40625 0-8-3.59375-8-8s3.59375-8 8-8h448c4.40625 0 8 3.59375 8 8s-3.59375 8-8 8zm0 0" fill="#044E54"/><path d="m248 280h16v16h-16zm0 0" fill="#044E54"/><path d="m408 280h16v16h-16zm0 0" fill="#044E54"/><path d="m328 280h16v16h-16zm0 0" fill="#044E54"/><path d="m72 280h16v16h-16zm0 0" fill="#044E54"/><path d="m152 280h16v16h-16zm0 0" fill="#044E54"/></svg>