<svg height="464pt" viewBox="0 -4 464 464" width="464pt" xmlns="http://www.w3.org/2000/svg"><path d="m263.847656 187.558594c11.519532-5.152344 25.191406-4.542969 36.152344 1.929687 12.199219-7.199219 27.800781-7.199219 40 0 10.960938-6.472656 24.640625-7.082031 36.160156-1.921875 9.703125-5.710937 15.839844-16.140625 15.839844-27.566406 0-17.648438-14.351562-32-32-32h-30.398438l6.398438-128h-32l6.398438 128h-30.398438c-17.648438 0-32 14.351562-32 32 0 11.433594 6.136719 21.863281 15.847656 27.558594zm21.785156-49.238282c.144532.136719 14.160157 13.679688 34.367188 13.679688 20.449219 0 34.207031-13.519531 34.34375-13.65625l11.3125 11.3125c-.753906.75-18.65625 18.34375-45.65625 18.34375s-44.902344-17.59375-45.65625-18.34375zm0 0" fill="#0B4F71"/><path d="m87.847656 187.558594c11.519532-5.152344 25.191406-4.542969 36.152344 1.929687 12.199219-7.199219 27.800781-7.199219 40 0 10.960938-6.472656 24.640625-7.082031 36.160156-1.921875 9.703125-5.710937 15.839844-16.140625 15.839844-27.566406 0-17.648438-14.351562-32-32-32h-30.398438l6.398438-128h-32l6.398438 128h-30.398438c-17.648438 0-32 14.351562-32 32 0 11.433594 6.136719 21.863281 15.847656 27.558594zm21.785156-49.238282c.144532.136719 14.160157 13.679688 34.367188 13.679688 20.449219 0 34.207031-13.519531 34.34375-13.65625l11.3125 11.3125c-.753906.75-18.65625 18.34375-45.65625 18.34375s-44.902344-17.59375-45.65625-18.34375zm0 0" fill="#0B4F71"/><path d="m78.246094 456h307.507812l4-16h-315.507812zm0 0" fill="#0B4F71"/><path d="m400 248h-24v16h-16v-16h-120c-13.230469 0-24 10.769531-24 24s10.769531 24 24 24h24v-16h16v16h120c13.230469 0 24-10.769531 24-24s-10.769531-24-24-24zm-152 32h-16v-16h16zm80 0h-16v-16h16zm80 0h-16v-16h16zm0 0" fill="#0B4F71"/><path d="m232 312c-8.824219 0-16 7.175781-16 16s7.175781 16 16 16h176c8.824219 0 16-7.175781 16-16s-7.175781-16-16-16zm0 0" fill="#0B4F71"/><path d="m220.214844 237.449219c5.863281-3.371094 12.554687-5.449219 19.785156-5.449219h160c7.230469 0 13.921875 2.078125 19.785156 5.449219 2.671875-3.945313 4.214844-8.601563 4.214844-13.449219 0-13.230469-10.769531-24-24-24-5.398438 0-10.574219 1.871094-14.976562 5.425781l-5.023438 4.0625-5.023438-4.0625c-8.792968-7.105469-21.160156-7.105469-29.945312 0l-5.03125 4.0625-5.023438-4.0625c-8.792968-7.105469-21.160156-7.105469-29.945312 0l-5.03125 4.0625-5.023438-4.0625c-8.792968-7.105469-21.160156-7.105469-29.945312 0l-5.03125 4.0625-5.023438-4.0625c-4.402343-3.554687-9.578124-5.425781-14.976562-5.425781-13.230469 0-24 10.769531-24 24 0 4.847656 1.542969 9.503906 4.214844 13.449219zm0 0" fill="#0B4F71"/><path d="m456 360h-448c-4.40625 0-8 3.59375-8 8s3.59375 8 8 8h448c4.40625 0 8-3.59375 8-8s-3.59375-8-8-8zm0 0" fill="#0B4F71"/><path d="m64 232h136.832031c-.535156-2.617188-.832031-5.289062-.832031-8 0-5.40625 1.105469-10.558594 3.0625-15.273438l-4.085938-3.300781c-8.792968-7.105469-21.160156-7.105469-29.945312 0l-5.03125 4.0625-5.023438-4.0625c-8.792968-7.105469-21.160156-7.105469-29.945312 0l-5.03125 4.0625-5.023438-4.0625c-8.792968-7.105469-21.160156-7.105469-29.945312 0l-5.03125 4.0625-5.023438-4.0625c-4.402343-3.554687-9.578124-5.425781-14.976562-5.425781-13.230469 0-24 10.769531-24 24 0 4.847656 1.542969 9.503906 4.214844 13.449219 5.863281-3.371094 12.554687-5.449219 19.785156-5.449219zm0 0" fill="#0B4F71"/><path d="m56 344h148.449219c-2.753907-4.726562-4.449219-10.144531-4.449219-16s1.695312-11.273438 4.449219-16h-148.449219c-8.824219 0-16 7.175781-16 16s7.175781 16 16 16zm0 0" fill="#0B4F71"/><path d="m53.414062 424h357.171876l12.796874-32h-382.765624zm0 0" fill="#0B4F71"/><path d="m64 296h24v-16h16v16h104.207031c-5.078125-6.703125-8.207031-14.960938-8.207031-24 0-8.984375 3.089844-17.199219 8.113281-23.886719-.035156-.042969-.066406-.074219-.089843-.113281h-8.023438v16h-16v-16h-120c-13.230469 0-24 10.769531-24 24s10.769531 24 24 24zm72-32h16v16h-16zm-80 0h16v16h-16zm0 0" fill="#0B4F71"/></svg>