<svg height="512pt" viewBox="0 0 512 512" width="512pt" xmlns="http://www.w3.org/2000/svg">
<path d="m502 402c-94.496094 0-314.90625 0-440 0 0 33.140625 26.863281 60 60 60h320c33.140625 0 60-26.859375 60-60zm0 0" fill="#0B4F71"/>
<path d="m460.117188 174.042969c-.363282-.023438-.734376-.042969-1.117188-.042969-1.660156 0-3.464844.253906-5.367188.675781-8.625 7.066407-19.636718 11.324219-31.632812 11.324219-4.003906 0-7.914062-.488281-11.683594-1.394531l-25.714844 35.722656c5.078126 5.089844 10.761719 9.570313 16.933594 13.332031 6.574219 1.53125 13.425782 2.339844 20.464844 2.339844 24.878906 0 47.410156-10.101562 63.699219-26.421875zm0 0" fill="#0B4F71"/>
<path d="m452 336c-3.742188 0-17.5 0-31 0-11.050781 0-20 8.949219-20 20v46h71v-46c0-11.050781-8.949219-20-20-20zm0 0" fill="#0B4F71"/>
<path d="m439.800781 239.273438c-22.214843 5.089843-38.800781 24.96875-38.800781 48.726562 0 21.339844 13.378906 39.546875 32.199219 46.726562 22.214843-5.089843 38.800781-24.96875 38.800781-48.726562 0-21.339844-13.378906-39.546875-32.199219-46.726562zm0 0" fill="#0B4F71"/>
<path d="m131.46875 489.941406c3.390625 6.777344 10.320312 11.058594 17.890625 11.058594h266.488281c5-1.636719 9.253906-5.199219 11.683594-10.058594l14.46875-28.941406h-324.5zm0 0" fill="#0B4F71"/>
<path d="m291.820312 170.851562c-9.089843 9.339844-21.789062 15.148438-35.820312 15.148438-3.878906 0-7.671875-.460938-11.335938-1.3125l-26.664062 37.042969c3.949219 3.957031 8.273438 7.546875 12.902344 10.71875 7.96875 2.308593 16.386718 3.550781 25.097656 3.550781 24.878906 0 47.410156-10.101562 63.699219-26.421875zm0 0" fill="#0B4F71"/>
<path d="m304 356c0-11.050781-8.949219-20-20-20-4.273438 0-21.585938 0-36.675781 0-6.695313 3.230469-11.324219 10.0625-11.324219 18v46h68zm0 0" fill="#0B4F71"/>
<path d="m276.558594 240.425781c-24.566406 3.164063-43.558594 24.148438-43.558594 49.574219 0 20.277344 12.085938 37.730469 29.441406 45.574219 24.566406-3.164063 43.558594-24.148438 43.558594-49.574219 0-20.277344-12.085938-37.730469-29.441406-45.574219zm0 0" fill="#0B4F71"/>
<path d="m125.820312 170.851562c-9.089843 9.339844-21.789062 15.148438-35.820312 15.148438-4.761719 0-9.398438-.6875-13.816406-1.960938l-25.582032 35.539063c5.28125 5.292969 11.222657 9.925781 17.683594 13.777344 6.953125 1.722656 14.226563 2.644531 21.714844 2.644531 24.878906 0 47.410156-10.101562 63.699219-26.421875zm0 0" fill="#0B4F71"/>
<path d="m140 356c0-11.050781-8.949219-20-20-20-4.367188 0-22.359375 0-37.675781 0-6.695313 3.230469-11.324219 10.0625-11.324219 18v46h69zm0 0" fill="#0B4F71"/>
<path d="m114.179688 242.234375c-25.347657 2.429687-45.179688 23.78125-45.179688 49.765625 0 18.839844 10.429688 35.238281 25.820312 43.765625 25.347657-2.429687 45.179688-23.78125 45.179688-49.765625 0-18.839844-10.429688-35.238281-25.820312-43.765625zm0 0" fill="#0B4F71"/>
<path d="m502 392h-20v-36c0-12.199219-7.324219-22.714844-17.800781-27.398438 10.984375-10.878906 17.800781-25.957031 17.800781-42.601562 0-19.078125-8.960938-36.09375-22.886719-47.089844 12.460938-4.976562 23.898438-12.480468 33.664063-22.265625 3.460937-3.464843 3.898437-8.929687 1.039062-12.90625l-27.878906-38.730469c-1.730469-2.398437-4.429688-3.910156-7.378906-4.128906-2.945313-.222656-5.84375.878906-7.90625 2.996094-5.210938 5.359375-11.632813 9.066406-18.652344 10.867188v-164.742188c0-5.523438-4.476562-10-10-10s-10 4.476562-10 10v164.738281c-7.015625-1.804687-13.4375-5.511719-18.660156-10.867187-2.0625-2.117188-4.953125-3.214844-7.902344-2.992188-2.949219.21875-5.648438 1.730469-7.375 4.128906l-27.878906 38.730469c-2.859375 3.976563-2.421875 9.441407 1.039062 12.90625 9.765625 9.785157 21.203125 17.289063 33.664063 22.265625-13.925781 10.996094-22.886719 28.011719-22.886719 47.089844 0 16.644531 6.816406 31.722656 17.800781 42.601562-10.476562 4.683594-17.800781 15.199219-17.800781 27.398438v36h-46v-36c0-12.199219-7.324219-22.714844-17.800781-27.398438 10.984375-10.878906 17.800781-25.957031 17.800781-42.601562 0-19.078125-8.960938-36.09375-22.886719-47.089844 12.460938-4.976562 23.898438-12.480468 33.664063-22.265625 3.460937-3.464843 3.898437-8.929687 1.039062-12.90625l-27.878906-38.730469c-1.730469-2.398437-4.429688-3.910156-7.378906-4.128906-2.949219-.222656-5.84375.878906-7.90625 2.996094-5.210938 5.359375-11.632813 9.066406-18.652344 10.867188v-164.742188c0-5.523438-4.476562-10-10-10s-10 4.476562-10 10v164.738281c-7.015625-1.804687-13.4375-5.511719-18.660156-10.867187-2.0625-2.117188-4.957032-3.214844-7.902344-2.992188-2.949219.21875-5.648438 1.730469-7.375 4.128906l-27.878906 38.730469c-2.859375 3.976563-2.421875 9.441407 1.039062 12.90625 9.765625 9.785157 21.203125 17.289063 33.664063 22.265625-13.925781 10.996094-22.886719 28.011719-22.886719 47.089844 0 16.644531 6.816406 31.722656 17.800781 42.601562-10.476562 4.683594-17.800781 15.199219-17.800781 27.398438v36h-46v-36c0-12.199219-7.324219-22.714844-17.800781-27.398438 10.984375-10.878906 17.800781-25.957031 17.800781-42.601562 0-19.078125-8.960938-36.09375-22.886719-47.089844 12.460938-4.976562 23.898438-12.480468 33.664063-22.265625 3.460937-3.464843 3.898437-8.929687 1.039062-12.90625l-27.878906-38.730469c-1.730469-2.398437-4.429688-3.910156-7.378906-4.128906-2.953125-.222656-5.84375.878906-7.90625 2.996094-5.210938 5.359375-11.632813 9.066406-18.652344 10.867188v-164.742188c0-5.523438-4.476562-10-10-10s-10 4.476562-10 10v164.738281c-7.015625-1.804687-13.4375-5.511719-18.660156-10.867187-2.0625-2.117188-4.960938-3.214844-7.902344-2.992188-2.949219.21875-5.648438 1.730469-7.375 4.128906l-27.878906 38.730469c-2.859375 3.976563-2.421875 9.441407 1.039062 12.90625 9.765625 9.785157 21.203125 17.289063 33.664063 22.265625-13.925781 10.996094-22.886719 28.011719-22.886719 47.089844 0 16.644531 6.816406 31.722656 17.800781 42.601562-10.476562 4.683594-17.800781 15.199219-17.800781 27.398438v36h-20c-5.523438 0-10 4.476562-10 10 0 36.78125 28.1875 66.546875 63.671875 69.707031l11.851563 23.703125c5.121093 10.234375 15.402343 16.589844 26.835937 16.589844h307.28125c11.433594 0 21.71875-6.355469 26.835937-16.589844l11.851563-23.710937c35.644531-3.210938 63.671875-33.234375 63.671875-69.699219 0-5.523438-4.476562-10-10-10zm-130.363281-183.828125 16.367187-22.738281c9.929688 6.875 21.667969 10.566406 33.996094 10.566406 12.339844 0 24.078125-3.691406 34-10.5625l16.363281 22.734375c-14.207031 11.550781-31.800781 17.828125-50.363281 17.828125s-36.15625-6.277344-50.363281-17.828125zm50.363281 37.828125c22.054688 0 40 17.945312 40 40s-17.945312 40-40 40-40-17.945312-40-40 17.945312-40 40-40zm-40 110c0-5.515625 4.484375-10 10-10h60c5.515625 0 10 4.484375 10 10v36h-80zm-176.363281-147.828125 16.367187-22.738281c9.929688 6.875 21.667969 10.566406 33.996094 10.566406 12.339844 0 24.078125-3.691406 34-10.5625l16.363281 22.734375c-14.207031 11.550781-31.800781 17.828125-50.363281 17.828125s-36.15625-6.277344-50.363281-17.828125zm50.363281 37.828125c22.054688 0 40 17.945312 40 40s-17.945312 40-40 40-40-17.945312-40-40 17.945312-40 40-40zm-40 110c0-5.515625 4.484375-10 10-10h60c5.515625 0 10 4.484375 10 10v36h-80zm-176.363281-147.828125 16.367187-22.738281c9.929688 6.875 21.667969 10.566406 33.996094 10.566406 12.339844 0 24.078125-3.691406 34-10.5625l16.363281 22.734375c-14.207031 11.550781-31.800781 17.828125-50.363281 17.828125s-36.15625-6.277344-50.363281-17.828125zm50.363281 37.828125c22.054688 0 40 17.945312 40 40s-17.945312 40-40 40-40-17.945312-40-40 17.945312-40 40-40zm-40 110c0-5.515625 4.484375-10 10-10h60c5.515625 0 10 4.484375 10 10v36h-80zm392 96h-60c-5.523438 0-10 4.476562-10 10s4.476562 10 10 10h43.820312l-7.234374 14.46875c-1.707032 3.410156-5.136719 5.53125-8.945313 5.53125h-307.28125c-3.8125 0-7.238281-2.121094-8.945313-5.53125l-7.234374-14.46875h215.820312c5.523438 0 10-4.476562 10-10s-4.476562-10-10-10h-232c-24.527344 0-44.457031-17.496094-49.007812-40.011719h470.003906c-4.644532 22.796875-24.851563 40.011719-48.996094 40.011719zm0 0"/>
<path d="m352 462c0 5.523438-4.476562 10-10 10s-10-4.476562-10-10 4.476562-10 10-10 10 4.476562 10 10zm0 0"/>
</svg>