<?xml version="1.0" encoding="iso-8859-1"?>
<!-- Generator: Adobe Illustrator 19.0.0, SVG Export Plug-In . SVG Version: 6.00 Build 0)  -->
<svg version="1.1" id="Capa_1" xmlns="http://www.w3.org/2000/svg" xmlns:xlink="http://www.w3.org/1999/xlink" x="0px" y="0px"
	 viewBox="0 0 512 512" style="enable-background:new 0 0 512 512;" xml:space="preserve">
<g>
	<g>
		<path d="M510.42,453.077c-1.963-3.157-5.397-5.077-9.088-5.077H10.666c-3.691,0-7.125,1.92-9.067,5.056
			c-1.941,3.136-2.133,7.061-0.469,10.368C16.106,493.397,46.228,512,79.7,512h352.576c33.472,0,63.573-18.603,78.592-48.555
			C512.511,460.139,512.34,456.213,510.42,453.077z"/>
	</g>
</g>
<g>
	<g>
		<path d="M424.831,339.221c-0.64-0.853-1.429-1.6-2.304-2.219l-6.229-4.352c-5.931,5.504-13.504,8.683-21.632,8.683
			c-9.707,0-18.795-4.331-24.917-11.925c-7.211-9.003-25.28-32.064-44.928-60.821l-1.792-1.259
			c-0.896-0.619-1.877-1.109-2.923-1.429c-11.435-3.605-23.083-6.144-34.837-7.787c1.728-3.925,2.709-8.235,2.709-12.8
			c0-17.643-14.357-32-32-32c-17.643,0-32,14.357-32,32c0,4.587,1.003,8.917,2.752,12.864
			c-89.557,12.331-161.664,80.085-179.563,168.491h417.856C458.559,395.093,444.948,365.291,424.831,339.221z M246.036,319.979
			c-59.691,3.947-111.083,42.901-130.88,99.243c-1.536,4.373-5.675,7.125-10.069,7.125c-1.173,0-2.368-0.192-3.541-0.597
			c-5.547-1.963-8.469-8.043-6.528-13.611c22.656-64.405,81.365-108.928,149.589-113.451c5.909-0.619,10.965,4.053,11.349,9.941
			C256.362,314.496,251.924,319.573,246.036,319.979z M255.999,256c-5.888,0-10.667-4.779-10.667-10.667s4.779-10.667,10.667-10.667
			c5.888,0,10.667,4.779,10.667,10.667S261.887,256,255.999,256z"/>
	</g>
</g>
<g>
	<g>
		<path d="M394.666,0c-64.683,0-117.333,52.629-117.333,117.333c0,61.931,104.555,193.131,108.992,198.656
			c2.048,2.539,5.12,4.011,8.341,4.011s6.293-1.472,8.341-4.011c4.437-5.525,108.992-136.725,108.992-198.656
			C511.999,52.629,459.348,0,394.666,0z M394.666,170.667c-29.419,0-53.333-23.936-53.333-53.333
			c0-29.397,23.915-53.333,53.333-53.333s53.333,23.936,53.333,53.333C447.999,146.731,424.084,170.667,394.666,170.667z"/>
	</g>
</g>
<g>
</g>
<g>
</g>
<g>
</g>
<g>
</g>
<g>
</g>
<g>
</g>
<g>
</g>
<g>
</g>
<g>
</g>
<g>
</g>
<g>
</g>
<g>
</g>
<g>
</g>
<g>
</g>
<g>
</g>
</svg>
