<?xml version="1.0" encoding="iso-8859-1"?>
<!-- Generator: Adobe Illustrator 19.0.0, SVG Export Plug-In . SVG Version: 6.00 Build 0)  -->
<svg version="1.1" id="Capa_1" xmlns="http://www.w3.org/2000/svg" xmlns:xlink="http://www.w3.org/1999/xlink" x="0px" y="0px"
	 viewBox="0 0 480 480" style="enable-background:new 0 0 480 480;" xml:space="preserve">
<path id="XMLID_494_" d="M450.995,401.537c9.406-5.502,18.167-12.251,26.076-20.16c3.905-3.905,3.905-10.237,0-14.143
	L309.924,200.088c-3.906-3.905-10.236-3.905-14.143,0c-4.433,4.432-8.472,9.111-12.118,13.993
	c-24.363-40.086-68.134-65.171-115.864-65.171c-1.561,0-3.121,0.027-4.668,0.079L140,125.858V70c0-38.598-31.401-70-70-70H10
	C4.478,0,0,4.477,0,10v60c0,38.598,31.401,70,70,70h55.857l12.197,12.197C77.572,165.789,32.254,219.928,32.254,284.455
	c0,23.7,6.099,46.679,17.719,67.048C37.81,361.195,30,376.132,30,392.857c0,2.786,0.214,5.539,0.639,8.249
	C13.083,405.332,0,421.167,0,440c0,22.056,17.944,40,40,40h400c22.056,0,40-17.944,40-40
	C480,421.756,467.722,406.326,450.995,401.537z M120,105.858L87.071,72.929c-3.906-3.905-10.236-3.905-14.143,0
	c-3.905,3.905-3.905,10.237,0,14.143L105.857,120H70c-27.57,0-50-22.43-50-50V20h50c27.57,0,50,22.43,50,50V105.858z
	 M303.177,221.625l152.36,152.361c-19.383,16.147-43.572,24.938-69.111,24.938c-28.898,0-56.067-11.254-76.502-31.688v0
	C270.124,327.435,267.876,264.086,303.177,221.625z M319.3,400h-80.448c15.89-9.771,29.754-22.848,40.591-38.621
	c4.672,7.07,10.119,13.777,16.339,19.997v0C302.97,388.565,310.86,394.794,319.3,400z M156.69,169.439
	c6.185-0.772,9.988-0.53,11.108-0.53c44.235,0,84.479,25.272,103.817,64.777c-16.666,33.611-17.692,73.074-3.078,107.405
	C248.043,377.549,209.866,400,167.799,400c-10.97,0-21.75-1.521-32.148-4.528c0.042-0.852,0.063-1.708,0.063-2.567
	c0-0.001,0-0.001,0-0.002c0-0.015,0-0.03,0-0.045c0-29.146-23.711-52.857-52.856-52.857c-5.266,0-10.353,0.773-15.155,2.213
	c-10.129-17.507-15.448-37.316-15.448-57.759C52.254,224.487,98.167,175.044,156.69,169.439z M68.105,363.501
	c0.012-0.005,0.022-0.011,0.033-0.017c4.431-2.229,9.431-3.484,14.719-3.484c18.117,0,32.856,14.74,32.856,32.857
	c0,2.382-0.266,4.784-0.79,7.143H50.776C50.26,397.673,50,395.286,50,392.857C50,380.041,57.376,368.915,68.105,363.501z M440,460
	H40c-11.028,0-20-8.972-20-20s8.972-20,20-20h400c11.028,0,20,8.972,20,20S451.028,460,440,460z M191.757,270.623
	c-2.762-4.783-1.123-10.898,3.66-13.66l10.872-6.277c4.782-2.762,10.899-1.123,13.66,3.66c2.762,4.783,1.123,10.898-3.66,13.66
	l-10.872,6.277c-1.574,0.909-3.294,1.341-4.99,1.341C196.97,275.625,193.609,273.832,191.757,270.623z M157.799,334.673v-12.555
	c0-5.523,4.478-10,10-10s10,4.477,10,10v12.555c0,5.523-4.478,10-10,10S157.799,340.196,157.799,334.673z M115.648,254.346
	c2.761-4.782,8.876-6.422,13.66-3.66l10.873,6.277c4.783,2.761,6.422,8.877,3.66,13.66c-1.852,3.208-5.214,5.001-8.67,5.001
	c-1.696,0-3.415-0.432-4.99-1.341l-10.873-6.277C114.525,265.245,112.887,259.129,115.648,254.346z M115.648,314.564
	c-2.762-4.783-1.123-10.899,3.66-13.66l10.873-6.277c4.786-2.762,10.899-1.122,13.66,3.66c2.762,4.783,1.123,10.899-3.66,13.66
	l-10.873,6.277c-1.575,0.909-3.294,1.341-4.99,1.341C120.861,319.566,117.5,317.772,115.648,314.564z M157.799,246.791v-12.554
	c0-5.523,4.478-10,10-10s10,4.477,10,10v12.554c0,5.523-4.478,10-10,10S157.799,252.314,157.799,246.791z M191.757,298.287
	c2.762-4.783,8.875-6.421,13.66-3.66l10.872,6.277c4.783,2.762,6.422,8.877,3.66,13.66c-1.853,3.208-5.214,5.001-8.67,5.001
	c-1.696,0-3.415-0.432-4.99-1.341l-10.872-6.277C190.634,309.185,188.995,303.069,191.757,298.287z"/>
<g>
</g>
<g>
</g>
<g>
</g>
<g>
</g>
<g>
</g>
<g>
</g>
<g>
</g>
<g>
</g>
<g>
</g>
<g>
</g>
<g>
</g>
<g>
</g>
<g>
</g>
<g>
</g>
<g>
</g>
</svg>
