<svg height="512pt" viewBox="0 0 512 512" width="512pt" xmlns="http://www.w3.org/2000/svg"><path d="m21.96875 166.820312 31.816406 31.820313 23.539063-23.539063 15.910156 26.515626 69.597656-69.59375-26.515625-15.910157 23.535156-23.539062-31.816406-31.820313c-29.246094-29.242187-76.824218-29.242187-106.066406 0-29.242188 29.242188-29.242188 76.824219 0 106.066406zm21.210938-84.851562c17.546874-17.546875 46.09375-17.546875 63.640624 0l10.605469 10.605469-29.492187 29.492187 26.515625 15.910156-15.257813 15.257813-15.910156-26.515625-29.496094 29.496094-10.605468-10.609375c-17.542969-17.542969-17.542969-46.09375 0-63.636719zm0 0"/><path d="m220.539062 21.96875c-29.242187 29.242188-29.242187 76.820312 0 106.0625l10.609376 10.609375 106.066406-106.066406-10.609375-10.605469c-29.242188-29.246094-76.824219-29.246094-106.066407 0zm72.445313 12.40625-60.035156 60.035156c-7.835938-16.371094-5.3125-37.113281 8.804687-51.230468 14.101563-14.101563 34.84375-16.648438 51.230469-8.804688zm0 0"/><path d="m120 0h30v30h-30zm0 0"/><path d="m150 180h30v30h-30zm0 0"/><path d="m481 225c0-36.664062-26.445312-67.265625-61.261719-73.738281-6.472656-34.816407-37.074219-61.261719-73.738281-61.261719s-67.265625 26.445312-73.738281 61.261719c-34.816407 6.472656-61.261719 37.074219-61.261719 73.738281 0 5.058594.515625 10.082031 1.515625 15h-212.515625v15c0 79.742188 45.386719 153.964844 115.621094 189.082031l4.378906 2.1875v65.730469h271v-65.730469l4.378906-2.1875c70.84375-35.421875 116.621094-109.640625 116.621094-189.082031v-15h-32.515625c1-4.917969 1.515625-9.941406 1.515625-15zm-195-45h15v-15c0-24.8125 20.1875-45 45-45s45 20.1875 45 45v15h15c24.8125 0 45 20.1875 45 45 0 5.136719-.890625 10.210938-2.578125 15h-57.421875l24-18-18-24-36 27v-60h-30v60l-36-27-18 24 24 18h-57.421875c-1.6875-4.789062-2.578125-9.863281-2.578125-15 0-24.8125 20.1875-45 45-45zm75 302h-211v-30h211zm11.460938-60h-233.921876c-3.765624-2.722656-61.417968-23.097656-92.378906-92.011719h419.421875c-31.175781 68.378907-89.257812 89.230469-93.121093 92.011719zm108.90625-152c-.863282 10.1875-2.605469 20.214844-5.140626 30h-440.550781c-2.492187-9.777344-4.207031-19.808594-5.054687-30zm0 0"/><path d="m421 75c0 24.8125 20.1875 45 45 45s45-20.1875 45-45-20.1875-45-45-45-45 20.1875-45 45zm45-15c8.269531 0 15 6.730469 15 15s-6.730469 15-15 15-15-6.730469-15-15 6.730469-15 15-15zm0 0"/></svg>