<svg height="512" viewBox="0 0 56 56" width="512" xmlns="http://www.w3.org/2000/svg"><path id="Shape" d="m43.36 7.36c-.27-2.87 0-5 .76-5.77.3755332-.3786253.8867249-.59159665 1.42-.59159665s1.0444668.21297135 1.42.59159665c.5995603.656404.9955973 1.47279613 1.14 2.35.0731277.353573.3311726.64026983.6751233.75008541s.7203892.02569478.9848767-.22008541c.84-.77 2.43-1.9 3.56-.76s0 2.71-.76 3.55c-.2457802.2644875-.329901.64092598-.2200854.98487667.1098156.34395068.3965124.60199559.7500854.67512333.8826044.1493388 1.7026393.55240678 2.36 1.16.3854906.3885601.5857612.9238287.55 1.47-.0282278.6039536-.3117957 1.167454-.78 1.55-1.48 1.2-4 1-5.4.83-1.7219331-.2316192-3.4684677.1854105-4.9 1.17l-3-3c1.0417277-1.3516535 1.5538209-3.03729375 1.44-4.74zm9.64 19.14c0 .17 0 .33.0000514.5h-10.7500514l4.69-2.91c1.063012-.6509021 1.7618347-1.7601444 1.89-3 .0199911-.222886.0199911-.447114 0-.67 2.5198165.9614074 4.1806969 3.3830267 4.17 6.08zm-16.85-16.3c.5786113-.0718016 1.1579742.1274697 1.57.54l8.58 8.57c.4125303.4120258.6118016.9913887.54 1.57-.0808688.6312723-.4503453 1.1891819-1 1.51l-4 2.45-3.45-3.45c-.1877666-.1893127-.4433625-.2957983-.71-.2957983s-.5222334.1064856-.71.2957983c-.3877236.3900375-.3877236 1.0199625 0 1.41l3.13 3.13-1.64 1.07h-13.67l4.15-6.67 3.17 3.18c.1887188.1871865.444197.2915368.71.29.265803.0015368.5212812-.1028135.71-.29.1893127-.1877666.2957983-.4433625.2957983-.71s-.1064856-.5222334-.2957983-.71l-3.53-3.5 3.25-5.23 4.5 4.49c.3900375.3877236 1.0199625.3877236 1.41 0 .3877236-.3900375.3877236-1.0199625 0-1.41l-4.82-4.83.29-.46c.3284573-.5386942.8918498-.8908144 1.52-.95zm-17.15-.2c4.3005002-.08154377 8.2603006 2.3309724 10.16 6.19l-1.37 2.19c-.6943488-2.7497159-2.7586687-4.946364-5.46-5.81-.3444764-.1556276-.7472657-.1037179-1.0410285.1341631-.2937627.2378811-.4282879.6210741-.3476868.9903807.0806011.3693067.3625518.6616039.7287153.7554562 2.4799999.7361464 4.2192366 2.9654222 4.33 5.55-.0050022.6145763-.11666 1.223619-.33 1.8l-3.24 5.2h-9.26c1.3374245-2.8884642 1.0284837-6.2715567-.81-8.87.735213-1.7496535 2.1952496-3.0928871 4-3.68.5035862-.1984283.7578837-.7615185.5737784-1.2705156-.1841054-.5089971-.7397776-.7791195-1.2537784-.6094844-2.0080846.6851069-3.694783 2.0835719-4.74 3.93-.5111508-.4254462-1.05258024-.8131364-1.62-1.16 2.053516-3.3684327 5.7354191-5.39956519 9.68-5.34zm-18.73 3.76c3.05.87 8.66 2.87 10.29 5.26 1.79 2.63 1.88 5.84.33 7.78l-4.12-4.94c-.22864998-.2750945-.58669244-.407309-.93925626-.3468396-.35256382.0604695-.64608617.3044361-.77000001.64-.12391384.335564-.05939371.7117451.16925627.9868396l3.22 3.86h-5.28c-.73959185-.5569913-1.38164353-1.2328351-1.9-2-1.62-2.38-1.35-8.17-1-11.24zm53.73 19.24h-6c-.5522847 0-1 .4477153-1 1s.4477153 1 1 1h5v3c0 10.4934102-8.5065898 19-19 19h-12c-10.4934102 0-19-8.5065898-19-19v-3h39c.5522847 0 1-.4477153 1-1s-.4477153-1-1-1h-40c-1.1045695 0-2-.8954305-2-2s.8954305-2 2-2h52c1.1045695 0 2 .8954305 2 2s-.8954305 2-2 2z" transform="translate(0 -1)" fill="#2B4005"/></svg>