<svg height="512pt" viewBox="0 0 512.00077 512" width="512pt" xmlns="http://www.w3.org/2000/svg"><path d="m53.804688 198.625 23.539062-23.539062 15.90625 26.515624 69.578125-69.578124-26.511719-15.910157 23.539063-23.539062-31.816407-31.8125c-28.328124-28.332031-77.75-28.332031-106.050781 0-29.371093 29.339843-29.261719 76.820312 0 106.050781zm0 0" fill="#2B4005"/><path d="m219.546875 21.972656c-29.238281 29.234375-29.238281 76.8125 0 106.050782l10.601563 10.605468 107.070312-106.050781-10.605469-10.605469c-29.222656-29.222656-77.816406-29.253906-107.066406 0zm0 0" fill="#2B4005"/><path d="m120.011719 0h30v30h-30zm0 0" fill="#2B4005"/><path d="m150.011719 179.996094h30v30h-30zm0 0" fill="#2B4005"/><path d="m467.003906 30c-24.816406 0-46 20.183594-46 45 0 24.8125 21.183594 44.996094 46 44.996094 24.8125 0 44.996094-20.183594 44.996094-44.996094 0-24.816406-20.183594-45-44.996094-45zm0 0" fill="#2B4005"/><path d="m14.246094 329.992188c13.5625 35.445312 36.558594 67.480468 67.042968 90.996093h348.4375c30.484376-23.515625 54.484376-55.550781 68.046876-90.996093zm0 0" fill="#2B4005"/><path d="m4.296875 299.992188h503.421875c2.140625-9.808594 3.558594-19.800782 4.28125-30h-511.984375c.722656 10.199218 2.140625 20.191406 4.28125 30zm0 0" fill="#2B4005"/><path d="m120.011719 450.988281h270.992187v60.996094h-270.992187zm0 0" fill="#2B4005"/><path d="m480.03125 239.992188c1.007812-4.9375 1.96875-9.90625 1.96875-15 0-36.664063-27.4375-67.261719-62.257812-73.734376-6.472657-34.820312-37.074219-61.261718-73.738282-61.261718-36.664062 0-67.261718 26.441406-73.734375 61.261718-34.820312 6.472657-62.261719 37.070313-62.261719 73.734376 0 5.09375.964844 10.0625 1.972657 15h89.035156l-24.003906-18 17.988281-23.996094 36.007812 27.003906v-60.003906h29.996094v60.003906l36.007813-27.003906 17.984375 23.996094-24 18zm0 0" fill="#2B4005"/></svg>