<?xml version="1.0" encoding="utf-8"?>
<!-- Generator: Adobe Illustrator 16.0.0, SVG Export Plug-In . SVG Version: 6.00 Build 0)  -->
<!DOCTYPE svg PUBLIC "-//W3C//DTD SVG 1.1//EN" "http://www.w3.org/Graphics/SVG/1.1/DTD/svg11.dtd">
<svg xmlns="http://www.w3.org/2000/svg" xmlns:xlink="http://www.w3.org/1999/xlink" version="1.1" id="Layer_1" x="0px" y="0px" width="512px" height="512px" viewBox="0 0 512 512" enable-background="new 0 0 512 512" xml:space="preserve">
<path d="M501.113,308.247c-3.953-7.268-11.557-11.784-19.816-11.784h-5.956c0.431-1.673,1.014-3.178,1.367-4.936  c4.323-21.576,2.25-47.489-5.847-72.976c-11.938-37.641-55.87-85.961-81.002-111.416c-5.814-5.872-14.96-8.066-22.727-5.613  c-8.107,2.555-13.994,9.348-15.365,17.71c-2.869,17.283-6.236,41.665-7.544,66.458c-0.946-0.846-1.987-1.551-3.053-2.213  c-10.783-41.733-36.102-69.762-65.291-68.212c-25.54,1.728-45.431,26.987-53.163,62.796c-14.387-8.28-28.969-12.945-42.308-12.945  c-11.077,0-21.378,2.928-29.75,10.194c-2.4-10.405-4.864-20.024-7.053-27.985c-2.242-8.17-8.791-14.316-17.114-16.042  c-8.203-1.653-16.784,1.427-22.035,7.96c-22.349,27.899-61.039,80.486-69.032,119.184c-2.679,12.965-3.855,25.877-3.591,38.166  c-7.945,0.347-15.178,4.749-18.943,11.815c-3.92,7.347-3.469,16.267,1.169,23.188l34.64,51.658  c11.51,17.156,30.811,27.455,51.473,27.455h314.955c21.019,0,40.609-10.654,52.03-28.31l33.077-51.118  C504.726,324.345,505.066,315.504,501.113,308.247z M278.653,139.953c12.965,0,28.056,16.918,36.549,43.589  c-20.117,7.139-46.832,17.654-71.006,30.515C243.605,171.473,260.472,141.149,278.653,139.953z M69.186,296.462H56.612  c-0.261-10.515,0.732-21.683,3.074-33.02c6.823-33.036,43.094-82.105,61.24-105.1c3.677,13.786,8.822,34.958,12.374,56.847  c-38.315-2.033-66.854,28.138-66.854,63.149C66.445,284.655,67.454,290.714,69.186,296.462z M163.936,296.462H95.935  c-2.909-5.431-4.712-11.541-4.712-18.124c0-21.348,17.364-38.713,38.713-38.713c21.35,0,38.715,17.365,38.715,38.713  C168.65,284.921,166.845,291.031,163.936,296.462z M159.971,222.75c-1.675-13.196,0.709-23.664,7.04-28.766  c3.38-2.71,7.881-4.09,13.398-4.09c10.076,0,24.159,4.956,38.941,15.448c-0.229,6.098-0.223,18.638,0.879,23.198  c-7.688,5.258-14.767,10.693-20.263,16.386c-3.827,3.966-7.142,8.087-10.454,12.202C184.215,242.31,173.638,230.169,159.971,222.75z   M255.682,296.462l25.763-26.688c4.751-4.929,4.614-12.769-0.307-17.519c-4.913-4.742-12.775-4.605-17.517,0.307l-42.377,43.9  h-28.028c5.539-11.149,13.57-22.922,24.577-34.326c23.614-24.463,81.282-46.723,107.979-56.216  c-6.883,22.037-20.894,62.446-38.011,90.542H255.682z M374.599,296.462h-53.63c-1.057-1.026-2.212-1.956-3.15-3.092  c10.502-20.505,19.281-43.271,25.939-62.849c1.261-0.124,2.483-0.38,3.773-0.38c21.35,0,38.715,17.364,38.715,38.713  C386.246,279.667,381.768,289.431,374.599,296.462z M404.115,296.462c2.839-5.781,5.028-11.908,5.989-18.526l5.882,18.526H404.115z   M452.415,286.662c-0.725,3.613-1.726,6.829-2.867,9.8h-7.565l-31.541-99.357c-2.08-6.525-9.032-10.139-15.558-8.058  c-6.517,2.073-10.129,9.034-8.058,15.558l6.508,20.496c-6.827-7.144-15.319-12.541-24.823-15.895  c-0.333-29.397,3.923-62.215,6.959-81.351c20.446,21.011,61.589,66.063,71.775,98.188  C454.092,247.603,455.924,269.128,452.415,286.662z" fill="#2B4005"/>
</svg>
