<?xml version="1.0" encoding="utf-8"?>
<!-- Generator: Adobe Illustrator 16.0.0, SVG Export Plug-In . SVG Version: 6.00 Build 0)  -->
<!DOCTYPE svg PUBLIC "-//W3C//DTD SVG 1.1//EN" "http://www.w3.org/Graphics/SVG/1.1/DTD/svg11.dtd">
<svg version="1.1" id="Layer_1" xmlns="http://www.w3.org/2000/svg" xmlns:xlink="http://www.w3.org/1999/xlink" x="0px" y="0px"
	 width="512px" height="512px" viewBox="0 0 512 512" enable-background="new 0 0 512 512" xml:space="preserve">
<g>
	<path d="M504.073,256.443v-0.005h-0.002c-0.013-43.461-110.567-78.688-246.957-78.688c-136.385,0-246.938,35.227-246.952,78.688
		h-0.001v0.005v0.003l0.001,0.005c0.81,82.134,59.009,152.654,142.601,185.354c-17.521,5.254-28.056,11.845-28.056,19.028
		c0,17.104,59.285,30.98,132.407,30.98c73.12,0,132.405-13.876,132.405-30.98c0-7.181-10.536-13.772-28.055-19.026
		c83.596-32.698,141.797-103.22,142.606-185.356l0.002-0.005V256.443z M257.114,210.659c111.284,0,179.223,22.558,204.14,38.541
		c5.293,3.395,5.291,11.081-0.003,14.475c-24.926,15.979-92.874,38.527-204.137,38.527c-111.265,0-179.207-22.548-204.132-38.527
		c-5.293-3.394-5.295-11.08-0.002-14.475C77.897,233.217,145.834,210.659,257.114,210.659z" fill="#513C06"/>
	<path d="M237.589,40.24c2.436-0.226,9.385-0.838,11.923,3.11c2.038,3.17,2.396,9.955-2.458,23.227
		c-17.376,47.579-11.926,68.006,3.432,84.63c6.322,6.844,17.269,6.46,23.234-0.696l0.105-0.126l1.563-2.133
		c4.31-5.881,3.931-13.959-0.881-19.438c-7.657-8.717-8.199-19.041,3.462-50.941c8.525-23.347,7.667-41.802-2.578-54.842
		c-14.116-17.973-38.678-15.828-41.434-15.49c-9.03,0.997-15.538,9.135-14.535,18.166C220.429,34.753,228.592,41.31,237.589,40.24z" fill="#513C06"
		/>
	<path d="M159.72,72.089c4.892-0.306,6.981,4.17,3.182,14.549c-11.68,31.977-10.67,49.072-0.466,63.191
		c6.041,8.359,18.372,8.691,24.785,0.614l1.222-1.54c4.104-5.168,4.591-12.43,0.963-17.942c-3.663-5.564-2.894-13.024,4.413-33.026
		c6.965-19.058,6.106-34.315-2.556-45.347c-12.003-15.298-32.644-13.481-34.949-13.224c-8.935,0.989-15.281,8.958-14.43,17.909
		C142.744,66.215,150.665,72.868,159.72,72.089z" fill="#513C06"/>
	<path d="M328.893,72.089c4.623-0.553,6.981,4.17,3.181,14.549c-11.68,31.977-10.669,49.072-0.466,63.191
		c6.041,8.359,18.372,8.691,24.785,0.615l1.223-1.541c4.104-5.168,4.591-12.431,0.963-17.943
		c-3.663-5.563-2.894-13.024,4.411-33.025c6.967-19.058,6.106-34.315-2.553-45.347c-12.012-15.298-32.636-13.481-34.951-13.224
		c-8.933,0.989-15.281,8.958-14.429,17.909C311.915,66.215,319.853,72.868,328.893,72.089z" fill="#513C06"/>
</g>
</svg>
