<svg height="511pt" viewBox="1 -30 511.99911 511" width="511pt" xmlns="http://www.w3.org/2000/svg"><path d="m198.558594 100.929688c.046875 11.171874-9.199219 20.558593-9.292969 20.648437l.085937-.082031 20.859376 21.558594c1.867187-1.808594 18.25-18.335938 18.347656-41.832032.039062-10.074218-3.09375-25.21875-18.257813-40.136718-6.230469-6.128907-9.269531-12.171876-9.296875-18.464844-.046875-11.167969 9.199219-20.554688 9.292969-20.648438l-.085937.085938-20.859376-21.558594c-1.867187 1.808594-18.25 18.335938-18.347656 41.828125-.042968 10.078125 3.09375 25.21875 18.257813 40.140625 6.230469 6.128906 9.269531 12.167969 9.296875 18.460938zm0 0" fill="#513C06"/><path d="m266.285156 100.929688c.050782 11.171874-9.199218 20.558593-9.292968 20.648437l.085937-.082031 20.863281 21.558594c1.863282-1.808594 18.246094-18.335938 18.34375-41.832032.042969-10.074218-3.09375-25.21875-18.257812-40.136718-6.226563-6.128907-9.269532-12.171876-9.296875-18.464844-.046875-11.167969 9.203125-20.554688 9.296875-20.648438l-.085938.085938-20.863281-21.558594c-1.867187 1.808594-18.25 18.335938-18.347656 41.828125-.039063 10.078125 3.09375 25.21875 18.257812 40.140625 6.230469 6.128906 9.273438 12.167969 9.296875 18.460938zm0 0" fill="#513C06"/><path d="m334.011719 100.929688c.050781 11.171874-9.199219 20.558593-9.292969 20.648437l.085938-.082031 20.863281 21.558594c1.863281-1.808594 18.246093-18.335938 18.34375-41.832032.042969-10.074218-3.09375-25.21875-18.257813-40.136718-6.226562-6.128907-9.269531-12.171876-9.296875-18.464844-.046875-11.167969 9.199219-20.554688 9.296875-20.648438l-.085937.085938-20.863281-21.558594c-1.867188 1.808594-18.25 18.335938-18.347657 41.828125-.039062 10.078125 3.09375 25.21875 18.257813 40.140625 6.230468 6.128906 9.273437 12.167969 9.296875 18.460938zm0 0" fill="#513C06"/><path d="m511.984375 207.628906-.113281-15.457031h-511.746094l-.1054688 14.894531-.0078124.566406c-.0039063.398438-.0117188.796876-.0117188 1.195313 0 17.238281 1.699219 34.222656 5.03125 50.78125h501.9375c3.332031-16.558594 5.03125-33.542969 5.03125-50.78125 0-.398437-.007812-.800781-.015625-1.199219zm0 0" fill="#513C06"/><path d="m49.417969 359.765625c18.203125 24.773437 40.308593 45.761719 65.414062 62.324219h-47.414062v30h377.164062v-30h-47.414062c25.105469-16.5625 47.214843-37.550782 65.414062-62.324219 15.890625-21.632813 28.089844-45.242187 36.394531-70.15625h-485.953124c8.304687 24.914063 20.503906 48.523437 36.394531 70.15625zm0 0" fill="#513C06"/></svg>