<?xml version="1.0" encoding="iso-8859-1"?>
<!-- Generator: Adobe Illustrator 18.1.1, SVG Export Plug-In . SVG Version: 6.00 Build 0)  -->
<svg xmlns="http://www.w3.org/2000/svg" xmlns:xlink="http://www.w3.org/1999/xlink" version="1.1" id="Capa_1" x="0px" y="0px" viewBox="0 0 301.396 301.396" style="enable-background:new 0 0 301.396 301.396;" xml:space="preserve" width="512px" height="512px">
<g>
	<path d="M296.896,147.912H4.5c-2.482,0-4.5,2.019-4.5,4.5c0,30.114,8.672,59.249,25.078,84.258   c16.906,25.769,40.822,45.127,69.164,55.981c0.515,0.197,1.056,0.297,1.609,0.297h109.695c0.553,0,1.094-0.1,1.609-0.297   c28.342-10.855,52.258-30.212,69.164-55.981c16.406-25.008,25.078-54.144,25.078-84.258   C301.396,149.931,299.378,147.912,296.896,147.912z M55.069,215.337c-1.179,0.902-2.568,1.339-3.946,1.339   c-1.955,0-3.886-0.877-5.166-2.549c-8.385-10.953-13.434-24.049-14.598-37.873c-0.301-3.577,2.354-6.722,5.931-7.023   c3.576-0.297,6.721,2.354,7.023,5.931c0.956,11.344,5.094,22.085,11.966,31.062C58.461,209.075,57.92,213.155,55.069,215.337z    M81.704,244.408c-1.269,1.783-3.27,2.737-5.302,2.737c-1.289,0-2.592-0.384-3.728-1.185c-0.281-0.198-6.956-4.956-13.561-14.271   c-2.077-2.929-1.386-6.986,1.542-9.062c2.929-2.076,6.985-1.386,9.063,1.542c5.232,7.379,10.418,11.145,10.47,11.182   C83.095,237.439,83.779,241.492,81.704,244.408z" fill="#513C06"/>
	<path d="M148.183,124.442c-17.498-33.205,57.178-100.904,0-115.994C164.325,38.913,90.817,109.27,148.183,124.442z" fill="#513C06"/>
	<path d="M189.869,126.229c-10.558-22.765,41.602-65.439,3.935-77.451C203.551,69.667,152.079,114.153,189.869,126.229z" fill="#513C06"/>
</g>
<g>
</g>
<g>
</g>
<g>
</g>
<g>
</g>
<g>
</g>
<g>
</g>
<g>
</g>
<g>
</g>
<g>
</g>
<g>
</g>
<g>
</g>
<g>
</g>
<g>
</g>
<g>
</g>
<g>
</g>
</svg>
