<?xml version="1.0" encoding="iso-8859-1"?>
<!-- Generator: Adobe Illustrator 19.0.0, SVG Export Plug-In . SVG Version: 6.00 Build 0)  -->
<svg version="1.1" id="Layer_1" xmlns="http://www.w3.org/2000/svg" xmlns:xlink="http://www.w3.org/1999/xlink" x="0px" y="0px"
	 viewBox="0 0 512 512" style="enable-background:new 0 0 512 512;" xml:space="preserve">
<path style="fill:#F9DEC5;" d="M98.276,483.379l36.621-33.451c4.755-4.344,10.948-6.776,17.388-6.832l125.156-1.065
	c12.458-0.107,24.461-4.696,33.812-12.931l93.023-81.925c8.988-7.915,9.828-21.628,1.874-30.581l0,0
	c-7.579-8.533-20.486-9.703-29.476-2.675l-72.989,57.058c-5.659,4.424-12.651,6.796-19.834,6.729l-80.807-0.754
	c-8.771-0.082-16.002-6.899-16.598-15.651l0,0c-0.663-9.72,7.057-17.962,16.799-17.935l70.35,0.185
	c9.429,0.024,17.3-7.187,18.098-16.581l0,0c0.875-10.291-7.017-19.23-17.337-19.637l-112.274-4.425
	c-4.216-0.166-8.413,0.05-12.542,0.632c-18.154,2.561-33.556,14.65-40.871,31.461l0,0c-8.325,19.137-20.87,36.145-36.696,49.751
	l-21.919,18.844"/>
<path style="fill:#EACEB7;" d="M162.08,302.912l12.476,0.487c-0.359,0.046-0.718,0.093-1.077,0.139
	c-18.152,2.56-33.558,14.653-40.867,31.461c-4.17,9.568-9.383,18.603-15.534,26.955c-6.163,8.34-13.252,15.997-21.163,22.797
	l-36.489,34.346l-9.371-15.499l21.916-18.847c7.912-6.8,15.001-14.456,21.163-22.797c6.151-8.352,11.375-17.387,15.534-26.955
	c7.309-16.808,22.716-28.901,40.867-31.461C153.671,302.958,157.864,302.738,162.08,302.912z"/>
<path style="fill:#F2F2F2;" d="M436.873,277.363c0-99.893-80.979-180.873-180.873-180.873S75.127,177.471,75.127,277.363"/>
<g>
	<path style="fill:#E6E6E6;" d="M288.583,99.424c-10.57-1.923-21.458-2.933-32.583-2.933c-99.893,0-180.873,80.979-180.873,180.873
		h65.164C140.291,188.594,204.242,114.768,288.583,99.424z"/>
	<path style="fill:#E6E6E6;" d="M283.434,56.051c0,12.117-7.854,22.391-18.742,26.017c-2.734,0.915-5.653,1.413-8.688,1.413
		c-15.152,0-27.442-12.279-27.442-27.43s12.29-27.43,27.442-27.43c3.035,0,5.954,0.498,8.688,1.413
		C275.58,33.66,283.434,43.935,283.434,56.051z"/>
</g>
<g>
	<path style="fill:#F2F2F2;" d="M283.434,56.051c0,12.117-7.854,22.391-18.742,26.017c-10.889-3.626-18.742-13.9-18.742-26.017
		s7.854-22.391,18.742-26.017C275.58,33.66,283.434,43.935,283.434,56.051z"/>
	<rect y="268.673" style="fill:#F2F2F2;" width="512" height="17.376"/>
</g>
<rect y="268.673" style="fill:#E6E6E6;" width="58.312" height="17.376"/>
<g>
</g>
<g>
</g>
<g>
</g>
<g>
</g>
<g>
</g>
<g>
</g>
<g>
</g>
<g>
</g>
<g>
</g>
<g>
</g>
<g>
</g>
<g>
</g>
<g>
</g>
<g>
</g>
<g>
</g>
</svg>
