<svg id="Capa_1" enable-background="new 0 0 512 512" height="512" viewBox="0 0 512 512" width="512" xmlns="http://www.w3.org/2000/svg"><path d="m256 .143c-24.81 0-45 20.19-45 45v32c0 8.28 6.72 15 15 15h15v-47c0-8.27 6.73-15 15-15s15 6.73 15 15v47h15c8.28 0 15-6.72 15-15v-32c0-24.811-20.19-45-45-45z" fill="#ffe6b3"/><path d="m301 45.143v32c0 8.28-6.72 15-15 15h-15v-47c0-8.27-6.73-15-15-15v-30c24.81 0 45 20.189 45 45z" fill="#ffca80"/><path d="m481 257.143c0 41.36-33.64 75-75 75h-300c-41.35 0-75-33.64-75-75 0-.34.01-.67.04-1h449.92c.03.329.04.659.04 1z" fill="#fdbf00"/><path d="m481 257.143c0 41.36-33.64 75-75 75h-150v-76h224.96c.03.329.04.659.04 1z" fill="#ff9100"/><path d="m480.99 256.143h-449.98c.53-107.06 87.8-194 194.99-194h60c107.19 0 194.46 86.939 194.99 194z" fill="#fff7cc"/><path d="m480.99 256.143h-224.99v-194h30c107.19 0 194.46 86.939 194.99 194z" fill="#ffe6b3"/><path d="m416.79 365.763-66.75 88.99c-2.57 3.43-6.48 5.59-10.75 5.95l-83.29 6.94-46.69 3.89c-33.11 2.76-52.95 21.19-63.56 34.58-5.59 7.06-16.05 7.73-22.42 1.36l-73.69-73.69c-5.68-5.68-5.88-14.83-.46-20.75l77.82-84.89c15.58-11.68 34.53-18 54-18h60c5.18 0 10.21.66 15 1.89 19.49 5.02 35.16 19.58 41.7 38.42 3.35 9.65-4.04 19.69-14.25 19.69h-87.02c-8.08 0-15.03 6.2-15.41 14.27-.41 8.61 6.46 15.73 14.98 15.73h112.54c4.85 0 9.39-2.34 12.21-6.28 9.68-13.55 33.05-43.94 81.64-51.92 13.32-2.18 22.5 13.02 14.4 23.82z" fill="#ffcebf"/><path d="m283.45 370.143h-27.45v-58.11c19.49 5.02 35.16 19.58 41.7 38.42 3.35 9.649-4.04 19.69-14.25 19.69z" fill="#ffbfab"/><path d="m416.79 365.763-66.75 88.99c-2.57 3.43-6.48 5.59-10.75 5.95l-83.29 6.94v-67.5h52.54c4.85 0 9.39-2.34 12.21-6.28 9.68-13.55 33.05-43.94 81.64-51.92 13.32-2.18 22.5 13.02 14.4 23.82z" fill="#ffbfab"/><g fill="#ffda2d"><path d="m512 257.143c0 8.28-6.72 15-15 15h-482c-8.28 0-15-6.72-15-15s6.72-15 15-15h482c8.28 0 15 6.719 15 15z"/><path d="m512 257.143c0 8.28-6.72 15-15 15h-482c-8.28 0-15-6.72-15-15s6.72-15 15-15h482c8.28 0 15 6.719 15 15z"/><path d="m512 257.143c0 8.28-6.72 15-15 15h-482c-8.28 0-15-6.72-15-15s6.72-15 15-15h482c8.28 0 15 6.719 15 15z"/><path d="m512 257.143c0 8.28-6.72 15-15 15h-482c-8.28 0-15-6.72-15-15s6.72-15 15-15h482c8.28 0 15 6.719 15 15z"/></g><path d="m512 257.143c0 8.28-6.72 15-15 15h-241v-30h241c8.28 0 15 6.719 15 15z" fill="#fdbf00"/></svg>