<svg height="495pt" viewBox="0 -15 495.9983 495" width="495pt" xmlns="http://www.w3.org/2000/svg"><path d="m448 264.5h-400c0-114.878906 89.519531-208 200-208s200 93.121094 200 208zm0 0" fill="#e0e0e2"/><path d="m488 264.5-16 48h-448l-16-48zm0 0" fill="#acabb1"/><path d="m376.640625 312.5c-.390625.238281-.765625.507812-1.121094.800781l-87.441406 70.957031-104 .242188-.078125-31.839844 64.078125-.160156c8.808594-.042969 15.921875-7.195312 15.921875-16v-8.320312c-.011719-7.792969-5.667969-14.429688-13.359375-15.679688-.871094-.160156-1.753906-.242188-2.640625-.242188l-128.238281.242188-39.921875 40.238281.160156 96.160157 208.160156-.398438 118.640625-96.800781c5.828125-4.699219 9.214844-11.792969 9.199219-19.28125v-.078125c.023438-7.867188-3.761719-15.261719-10.160156-19.839844" fill="#ffeb99"/><path d="m8 336.5h72v120h-72zm0 0" fill="#ab2300"/><path d="m232 8.5h32v48h-32zm0 0" fill="#acabb1"/><g fill="#231f20"><path d="m152.191406 130.019531c2.324219-1.742187 3.523438-4.609375 3.128906-7.488281-.390624-2.875-2.316406-5.316406-5.023437-6.371094-2.707031-1.054687-5.773437-.554687-8.007813 1.300782-35.683593 28.296874-59.671874 68.761718-67.386718 113.644531-.761719 4.351562 2.140625 8.496093 6.488281 9.265625.464844.085937.933594.128906 1.402344.128906 3.875-.007812 7.1875-2.792969 7.863281-6.609375 7.03125-41.015625 28.941406-78 61.535156-103.871094zm0 0"/><path d="m494.496094 259.820312c-1.503906-2.089843-3.921875-3.324218-6.496094-3.320312h-32.191406c-3.808594-107.050781-82.886719-194.402344-183.808594-206.519531v-41.480469c0-4.417969-3.582031-8-8-8h-32c-4.417969 0-8 3.582031-8 8v41.480469c-100.921875 12.117187-180 99.46875-183.808594 206.519531h-32.191406c-2.570312 0-4.984375 1.238281-6.484375 3.324219-1.5039062 2.085937-1.910156 4.765625-1.101563 7.203125l16 48c1.089844 3.265625 4.144532 5.46875 7.585938 5.472656h76.558594l-13.117188 13.222656c-1.140625-3.128906-4.113281-5.214844-7.441406-5.222656h-72c-4.417969 0-8 3.582031-8 8v120c0 4.417969 3.582031 8 8 8h72c4.25-.015625 7.742188-3.371094 7.921875-7.617188l200.246094-.382812c1.839843 0 3.621093-.640625 5.039062-1.808594l118.625-96.800781c11.242188-8.886719 15.207031-24.160156 9.703125-37.390625h50.464844c3.441406-.003906 6.496094-2.207031 7.585938-5.472656l16-48c.816406-2.4375.410156-5.121094-1.089844-7.207032zm-254.496094-211.320312v-32h16v32zm8 16c103.296875 0 187.808594 85.414062 191.847656 192h-383.695312c4.039062-106.585938 88.550781-192 191.847656-192zm-232 360h16c4.417969 0 8-3.582031 8-8s-3.582031-8-8-8h-16v-64h56s-.160156 8-.160156 8.253906l.160156 95.746094h-56zm392-92.082031c.003906 5.085937-2.296875 9.898437-6.257812 13.089843l-116.445313 94.992188-197.296875.382812v-85l35.089844-35.382812h126.511718c3.6875.707031 6.367188 3.921875 6.398438 7.679688v8.320312c0 4.390625-3.542969 7.964844-7.9375 8l-64.0625.160156c-4.417969 0-8 3.582032-8 8l.078125 31.839844c0 4.417969 3.582031 8 8 8l104-.242188c1.832031-.003906 3.605469-.636718 5.027344-1.789062l86.238281-69.96875h23.480469c3.308593 3.078125 5.183593 7.398438 5.175781 11.917969zm-137.3125-11.917969h83.265625l-68.722656 55.765625-93.175781.234375v-15.847656l56.023437-.152344c13.226563-.046875 23.921875-10.777344 23.921875-24v-8.320312c-.011719-2.617188-.457031-5.210938-1.3125-7.679688zm195.542969-16h-436.460938l-10.664062-32h457.789062zm0 0"/><path d="m60.398438 409.859375c-.40625-.316406-.867188-.558594-1.359376-.71875-.476562-.246094-.996093-.40625-1.527343-.480469-.996094-.242187-2.035157-.242187-3.03125 0-.53125.074219-1.042969.234375-1.519531.480469-.511719.175781-1 .417969-1.449219.71875-.414063.296875-.8125.617187-1.191407.960937-1.464843 1.53125-2.292968 3.558594-2.320312 5.679688-.015625 1.039062.171875 2.070312.550781 3.039062.472657.953126 1.066407 1.839844 1.769531 2.640626.777344.707031 1.671876 1.273437 2.640626 1.679687 1.9375.851563 4.140624.851563 6.078124 0 .96875-.40625 1.863282-.976563 2.640626-1.679687 1.503906-1.507813 2.339843-3.554688 2.320312-5.679688-.03125-2.117188-.859375-4.148438-2.320312-5.679688-.394532-.363281-.820313-.683593-1.28125-.960937zm0 0"/><path d="m176 224.5h-64c-4.417969 0-8 3.582031-8 8s3.582031 8 8 8h64c4.417969 0 8-3.582031 8-8s-3.582031-8-8-8zm0 0"/><path d="m208 224.5h-8c-4.417969 0-8 3.582031-8 8s3.582031 8 8 8h8c4.417969 0 8-3.582031 8-8s-3.582031-8-8-8zm0 0"/><path d="m392 280.5c-4.417969 0-8 3.582031-8 8s3.582031 8 8 8h56c4.417969 0 8-3.582031 8-8s-3.582031-8-8-8zm0 0"/><path d="m368 280.5h-8c-4.417969 0-8 3.582031-8 8s3.582031 8 8 8h8c4.417969 0 8-3.582031 8-8s-3.582031-8-8-8zm0 0"/></g></svg>